<?xml version="1.0" encoding="UTF-8"?>
<svg id="Layer_1" xmlns="http://www.w3.org/2000/svg" version="1.1" viewBox="0 0 1024 762.71">
  <!-- Generator: Adobe Illustrator 30.2.1, SVG Export Plug-In . SVG Version: 2.1.1 Build 1)  -->
  <defs>
    <style>
      .st0 {
        fill: #d4c9ad;
      }
    </style>
  </defs>
  <g id="Objects">
    <g>
      <path class="st0" d="M334.68,480.8c9.61-98.99,58.56-206.67,137.83-303.21,30.82-37.54,66.67-69.04,106.55-93.63,38.41-23.68,78.91-39.98,120.36-48.44,21.2-4.33,42.08-6.49,62.52-6.49,19.31,0,38.22,1.93,56.59,5.79,18.34,3.86,35.78,9.58,52.21,17.11,10.96,5.02,10.2,20.87-1.18,24.83-41.2,14.32-78.73,36.16-110.53,64.57-46.6,41.63-78.25,95.04-91.53,154.45-6.37,28.51-8.82,58.35-11.18,87.2-2.6,31.71-5.29,64.51-13.26,94.37-15.87,59.51-53.9,112.57-109.96,153.44-30.67,22.36-67.23,41.42-109,56.83-13.88,5.12-29.46.91-38.89-10.49-40.41-48.86-58.24-117.1-50.54-196.34ZM988.91,420.47c-16.36,43.9-40.28,85.2-71.1,122.74-38.23,46.56-81.41,86.87-128.34,119.82-45.21,31.74-91.87,55.27-138.69,69.93-46.46,14.55-90.61,19.61-131.21,15.02-25.67-2.9-49.23-9.61-70.44-20.04-10.3-5.06-9.75-19.88.88-24.2,36.71-14.92,69.36-32.75,97.46-53.24,60.63-44.2,101.83-101.9,119.16-166.86,8.54-31.98,11.31-65.88,14-98.67,2.3-28.03,4.67-57.02,10.68-83.88,12.16-54.4,41.2-103.36,83.97-141.58,36.95-33.01,82.35-56.47,132.42-68.59,11.48-2.78,23.54.62,31.88,8.99,21.44,21.53,38.52,47.03,50.91,76.09,15.16,35.54,22.73,74.9,22.5,116.97-.23,42.31-8.33,85.2-24.09,127.49Z"/>
      <path class="st0" d="M441.07,744.36c-11.31-5.56-18.07-16.83-17.62-29.42.1-2.93.59-5.76,1.42-8.43-4.18,1.04-8.46,1.57-12.8,1.57-15.88,0-30.81-7.02-40.94-19.28-21.88-26.45-37.67-58.03-46.93-93.86-9.15-35.43-11.75-74.43-7.72-115.9,3.51-36.12,12.04-73.31,25.17-110.68-1.98-22.72-4.46-45.67-9.29-67.25-12.16-54.4-41.2-103.36-83.97-141.58-36.95-33.02-82.35-56.47-132.42-68.59-11.48-2.77-23.55.63-31.88,8.99-21.44,21.53-38.52,47.03-50.91,76.09-15.16,35.55-22.73,74.9-22.5,116.96.23,42.31,8.33,85.21,24.08,127.49,16.36,43.9,40.28,85.2,71.1,122.74,38.23,46.56,81.41,86.87,128.34,119.82,45.2,31.73,91.86,55.26,138.68,69.93,26.63,8.34,52.5,13.56,77.37,15.64-3.1-1.34-6.16-2.75-9.17-4.24ZM444.6,83.96c-38.41-23.68-78.91-39.98-120.36-48.44-21.2-4.32-42.08-6.49-62.52-6.49-19.31,0-38.22,1.93-56.59,5.79-18.34,3.86-35.78,9.58-52.21,17.11-10.96,5.02-10.2,20.88,1.18,24.83,41.2,14.32,78.74,36.16,110.53,64.57,46.6,41.63,78.25,95.04,91.53,154.44,1.85,8.25,3.36,16.61,4.64,25.03,24.02-52.87,56.93-105.33,97.58-154.84,12.49-15.22,25.78-29.49,39.82-42.74-16.9-14.57-34.81-27.69-53.6-39.28Z"/>
    </g>
  </g>
</svg>