<?xml version="1.0" encoding="UTF-8"?>
<svg id="Layer_1" xmlns="http://www.w3.org/2000/svg" version="1.1" viewBox="0 0 256 256">
  <!-- Generator: Adobe Illustrator 30.2.1, SVG Export Plug-In . SVG Version: 2.1.1 Build 1)  -->
  <defs>
    <style>
      .st0 {
        fill: #999;
      }
    </style>
  </defs>
  <path class="st0" d="M232.39,101.94c-2.57,0-4.64,2.07-4.63,4.6,0,2.52,2.08,4.56,4.63,4.57,5.19,0,9.31,4.07,9.31,9.17,0,2.71-.79,4.26-2.33,5.72-1.55,1.46-4.13,2.72-7.66,3.48-8.63,1.59-18.15.48-26.05-1.22-3.97-.85-7.55-1.83-10.43-2.64-5.71-1.7-11.57-2.13-16.75-2.23-12.78,0-23.24,10.31-23.24,22.92,0,6.3,2.59,12.07,6.79,16.21,1.82,1.8,4.78,1.8,6.59,0,1.83-1.79,1.83-4.71,0-6.5-2.53-2.49-4.09-5.88-4.09-9.71,0-7.32,5.66-13.21,12.94-13.71,5.12-.36,10.92.73,15.2,1.83,2.92.82,6.7,1.89,10.99,2.81,8.58,1.84,19.27,3.24,29.9,1.25,4.59-1.44,9.27-3.12,12.25-5.86,3.23-3.04,5.19-7.48,5.19-12.36,0-10.06-8.39-18.34-18.61-18.34h0Z"/>
  <path class="st0" d="M178.48,108.01c-12.33.16-20.36,5.31-20.36,5.31-2.13,1.41-2.69,4.26-1.26,6.36,1.42,2.11,4.31,2.69,6.45,1.29,0,0,9.25-6.37,24.26-2.78,2.49.61,5.01-.89,5.63-3.35.61-2.47-.93-4.96-3.43-5.55-4.04-.97-7.84-1.32-11.29-1.28h0Z"/>
  <path class="st0" d="M176.31,143.4c-1.05.06-2.06.46-2.84,1.16-1.94,1.69-2.11,4.61-.38,6.5,0,0,6.84,7.23,19.12,8.02,2.57.16,4.78-1.76,4.94-4.3.17-2.52-1.76-4.71-4.32-4.88-9.08-.59-12.8-4.97-12.8-4.97-.82-.9-1.97-1.45-3.2-1.52-.17-.01-.34-.01-.52,0h0Z"/>
  <path class="st0" d="M204.79,228.05h9.01c3.82,0,8.4-1.44,12.19-5.18,3.79-3.73,6.41-9.68,6.41-17.73s-2.62-14.04-6.41-17.78c-3.79-3.73-8.36-5.14-12.19-5.14h-5.45c-1.94-5.32-7.13-9.17-13.16-9.17h-65.08c-7.65,0-13.97,6.19-13.97,13.74v22.92c0,12.95,6.11,24.54,15.63,32.12h-20.26c-2.57,0-4.66,2.03-4.67,4.57,0,2.55,2.09,4.61,4.67,4.6h106.95c2.57-.01,4.64-2.07,4.63-4.6,0-2.52-2.08-4.56-4.63-4.57h-24.91c4.68-3.73,8.53-8.43,11.23-13.78ZM209.16,209.71v-18.35h4.63c1.31,0,3.73.63,5.63,2.51,1.9,1.88,3.67,5.09,3.67,11.27s-1.77,9.39-3.67,11.27c-1.9,1.88-4.32,2.47-5.63,2.47h-5.68c.68-2.95,1.05-6.02,1.05-9.17ZM167.32,241.83h-9.3c-18.03,0-32.57-14.34-32.57-32.12v-22.92c0-2.59,2.04-4.57,4.67-4.57h65.08c2.62,0,4.67,1.98,4.67,4.57v22.92c0,17.78-14.51,32.12-32.54,32.12Z"/>
  <path class="st0" d="M90.14,8c-33.98,0-61.61,27.25-61.61,60.75s27.63,60.75,61.61,60.75,61.61-27.25,61.61-60.75S124.12,8,90.14,8ZM90.14,109.25c-22.65,0-41.07-18.16-41.07-40.5s18.42-40.5,41.07-40.5,41.07,18.16,41.07,40.5-18.42,40.5-41.07,40.5Z"/>
  <path class="st0" d="M100.16,149.75l3.02,20.25h-43.84c-16.98,0-30.8,13.63-30.8,30.38v50.63H8v-50.63c0-27.91,23.03-50.63,51.34-50.63h40.82Z"/>
</svg>